<svg xmlns="http://www.w3.org/2000/svg" width="32" height="32" viewBox="0 0 32 32"><g fill="none"><path fill="url(#f159idc)" fill-rule="evenodd" d="M10.2 6h11.663c4.311 0 7.793 3.382 7.793 7.546v5.321c0 6.15-4.593 11.133-10.992 11.133h-5.265C6.938 30 2.406 25.018 2.406 18.867V13.66h.001v-.115C2.406 9.382 5.898 6 10.2 6Z" clip-rule="evenodd"/><path fill="url(#f159id0)" fill-rule="evenodd" d="M10.2 6h11.663c4.311 0 7.793 3.382 7.793 7.546v5.321c0 6.15-4.593 11.133-10.992 11.133h-5.265C6.938 30 2.406 25.018 2.406 18.867V13.66h.001v-.115C2.406 9.382 5.898 6 10.2 6Z" clip-rule="evenodd"/><path fill="url(#f159idd)" fill-rule="evenodd" d="M10.2 6h11.663c4.311 0 7.793 3.382 7.793 7.546v5.321c0 6.15-4.593 11.133-10.992 11.133h-5.265C6.938 30 2.406 25.018 2.406 18.867V13.66h.001v-.115C2.406 9.382 5.898 6 10.2 6Z" clip-rule="evenodd"/><path fill="url(#f159id1)" fill-rule="evenodd" d="M10.2 6h11.663c4.311 0 7.793 3.382 7.793 7.546v5.321c0 6.15-4.593 11.133-10.992 11.133h-5.265C6.938 30 2.406 25.018 2.406 18.867V13.66h.001v-.115C2.406 9.382 5.898 6 10.2 6Z" clip-rule="evenodd"/><g filter="url(#f159idj)"><path fill="url(#f159ide)" d="M21.863 6.313H10.2c-4.301 0-7.637 3.389-7.637 7.562s3.336 7.563 7.636 7.563h11.664c4.3 0 7.606-3.39 7.606-7.563s-3.295-7.563-7.606-7.563Z"/><path fill="url(#f159id2)" d="M21.863 6.313H10.2c-4.301 0-7.637 3.389-7.637 7.562s3.336 7.563 7.636 7.563h11.664c4.3 0 7.606-3.39 7.606-7.563s-3.295-7.563-7.606-7.563Z"/></g><path fill="url(#f159idf)" d="M22.022 7.656c3.19 0 5.79 2.953 5.79 6.165c0 3.46-2.6 6.164-5.79 6.164H10.04c-3.19 0-5.791-2.657-5.791-6.164c0-3.008 2.6-6.165 5.79-6.165h11.982Z"/><path fill="url(#f159id3)" d="M22.022 7.656c3.19 0 5.79 2.953 5.79 6.165c0 3.46-2.6 6.164-5.79 6.164H10.04c-3.19 0-5.791-2.657-5.791-6.164c0-3.008 2.6-6.165 5.79-6.165h11.982Z"/><g filter="url(#f159idk)"><path fill="url(#f159idg)" d="M18.555 17.86c-.2-.57-.45-1.37-.11-1.86l4.83-9.672H21.13l-4.802 8.094c-.27.57-.995.886-1.608 1.013c-2.43.502-3.439 1.764-4.158 3.815h8.258c0-.63-.054-.756-.265-1.39Z"/><path fill="url(#f159id4)" d="M18.555 17.86c-.2-.57-.45-1.37-.11-1.86l4.83-9.672H21.13l-4.802 8.094c-.27.57-.995.886-1.608 1.013c-2.43.502-3.439 1.764-4.158 3.815h8.258c0-.63-.054-.756-.265-1.39Z"/><path fill="url(#f159id5)" d="M18.555 17.86c-.2-.57-.45-1.37-.11-1.86l4.83-9.672H21.13l-4.802 8.094c-.27.57-.995.886-1.608 1.013c-2.43.502-3.439 1.764-4.158 3.815h8.258c0-.63-.054-.756-.265-1.39Z"/><path fill="url(#f159idh)" d="M18.555 17.86c-.2-.57-.45-1.37-.11-1.86l4.83-9.672H21.13l-4.802 8.094c-.27.57-.995.886-1.608 1.013c-2.43.502-3.439 1.764-4.158 3.815h8.258c0-.63-.054-.756-.265-1.39Z"/></g><path fill="url(#f159idi)" d="M19.125 17.86c-.2-.57-.45-1.37-.11-1.86l5.704-9.875c.828-1.516 2.234-3.156.828-3.969c-1.532-.885-2.297 1.406-3.125 2.75l-5.524 9.516c-.27.57-.995.886-1.608 1.013c-2.43.502-4 2.502-4.72 4.554h8.82c0-.63-.054-1.495-.265-2.13Z"/><path fill="url(#f159id6)" d="M19.125 17.86c-.2-.57-.45-1.37-.11-1.86l5.704-9.875c.828-1.516 2.234-3.156.828-3.969c-1.532-.885-2.297 1.406-3.125 2.75l-5.524 9.516c-.27.57-.995.886-1.608 1.013c-2.43.502-4 2.502-4.72 4.554h8.82c0-.63-.054-1.495-.265-2.13Z"/><path fill="url(#f159id7)" d="M19.125 17.86c-.2-.57-.45-1.37-.11-1.86l5.704-9.875c.828-1.516 2.234-3.156.828-3.969c-1.532-.885-2.297 1.406-3.125 2.75l-5.524 9.516c-.27.57-.995.886-1.608 1.013c-2.43.502-4 2.502-4.72 4.554h8.82c0-.63-.054-1.495-.265-2.13Z"/><path fill="url(#f159id8)" d="M19.125 17.86c-.2-.57-.45-1.37-.11-1.86l5.704-9.875c.828-1.516 2.234-3.156.828-3.969c-1.532-.885-2.297 1.406-3.125 2.75l-5.524 9.516c-.27.57-.995.886-1.608 1.013c-2.43.502-4 2.502-4.72 4.554h8.82c0-.63-.054-1.495-.265-2.13Z"/><g filter="url(#f159idl)"><path fill="url(#f159id9)" d="M16.719 17.125c-2.364-1.205-4.024 1.047-5.063 2.875h6.61c.133-.96-.523-2.353-1.547-2.875Z"/></g><g filter="url(#f159idm)"><path stroke="url(#f159ida)" stroke-linecap="round" stroke-width=".5" d="M29.25 14.781c0 .875-.057 2.822-1.469 4.469c-1.5 1.75-4.781 2.313-6.25 2.313"/></g><g filter="url(#f159idn)"><path stroke="url(#f159idb)" stroke-linecap="round" stroke-width=".25" d="M11.766 20.25c.25-.89.984-2.531 2.625-3.39"/></g><defs><radialGradient id="f159id0" cx="0" cy="0" r="1" gradientTransform="matrix(0 29.9932 -24.882 0 16.031 8.382)" gradientUnits="userSpaceOnUse"><stop offset=".696" stop-color="#4A45E9" stop-opacity="0"/><stop offset=".892" stop-color="#4D45E9"/></radialGradient><radialGradient id="f159id1" cx="0" cy="0" r="1" gradientTransform="matrix(0 6.8125 -16.8437 0 16.031 30.438)" gradientUnits="userSpaceOnUse"><stop stop-color="#3F43EA"/><stop offset="1" stop-color="#3B69F0" stop-opacity="0"/></radialGradient><radialGradient id="f159id2" cx="0" cy="0" r="1" gradientTransform="matrix(-2.24998 6.9375 -6.75333 -2.19025 9.438 13.438)" gradientUnits="userSpaceOnUse"><stop offset=".738" stop-color="#57BFFF"/><stop offset=".833" stop-color="#5DC3FF" stop-opacity="0"/></radialGradient><radialGradient id="f159id3" cx="0" cy="0" r="1" gradientTransform="matrix(0 6.125 -18.6106 0 16.031 23)" gradientUnits="userSpaceOnUse"><stop offset=".173" stop-color="#1F2090"/><stop offset="1" stop-color="#202096" stop-opacity="0"/></radialGradient><radialGradient id="f159id4" cx="0" cy="0" r="1" gradientTransform="matrix(-.34375 .65625 -1.08947 -.57067 25.148 3)" gradientUnits="userSpaceOnUse"><stop stop-color="#D6D6DD"/><stop offset="1" stop-color="#D7D5DF" stop-opacity="0"/></radialGradient><radialGradient id="f159id5" cx="0" cy="0" r="1" gradientTransform="matrix(7.375 -3.89517 3.36459 6.3704 9.68 19.989)" gradientUnits="userSpaceOnUse"><stop stop-color="#8A8A99"/><stop offset=".353" stop-color="#9996A5"/><stop offset=".862" stop-color="#AAA7B5"/><stop offset="1" stop-color="#A9A5B3" stop-opacity="0"/></radialGradient><radialGradient id="f159id6" cx="0" cy="0" r="1" gradientTransform="matrix(-.34375 .65625 -1.08947 -.57067 25.719 3)" gradientUnits="userSpaceOnUse"><stop stop-color="#D6D6DD"/><stop offset="1" stop-color="#D7D5DF" stop-opacity="0"/></radialGradient><radialGradient id="f159id7" cx="0" cy="0" r="1" gradientTransform="matrix(7.375 -3.89517 3.36459 6.3704 10.25 19.989)" gradientUnits="userSpaceOnUse"><stop stop-color="#8A8A99"/><stop offset=".353" stop-color="#9996A5"/><stop offset=".862" stop-color="#AAA7B5"/><stop offset="1" stop-color="#A9A5B3" stop-opacity="0"/></radialGradient><radialGradient id="f159id8" cx="0" cy="0" r="1" gradientTransform="matrix(0 1.53125 -1.83149 0 19.438 17.531)" gradientUnits="userSpaceOnUse"><stop stop-color="#BFBFCA"/><stop offset="1" stop-color="#C0BEC9" stop-opacity="0"/></radialGradient><radialGradient id="f159id9" cx="0" cy="0" r="1" gradientTransform="rotate(-49.152 30.7 -3.353) scale(6.97569 3.88336)" gradientUnits="userSpaceOnUse"><stop stop-color="#9998A6"/><stop offset=".74" stop-color="#9796A4"/><stop offset=".887" stop-color="#646179"/></radialGradient><radialGradient id="f159ida" cx="0" cy="0" r="1" gradientTransform="matrix(-2.8263 -4.75 5.26197 -3.13092 28.313 19.625)" gradientUnits="userSpaceOnUse"><stop stop-color="#62B8FF"/><stop offset="1" stop-color="#5FB7FF" stop-opacity="0"/></radialGradient><radialGradient id="f159idb" cx="0" cy="0" r="1" gradientTransform="rotate(74.835 -5.703 17.07) scale(1.73219 2.1186)" gradientUnits="userSpaceOnUse"><stop stop-color="#9E9EAC"/><stop offset="1" stop-color="#CFCEDC" stop-opacity="0"/></radialGradient><linearGradient id="f159idc" x1="2.406" x2="29.656" y1="18" y2="18" gradientUnits="userSpaceOnUse"><stop stop-color="#3B74C0"/><stop offset=".192" stop-color="#2A7BDB"/><stop offset=".274" stop-color="#3483E7"/><stop offset=".499" stop-color="#3689E8"/><stop offset=".772" stop-color="#3982EA"/><stop offset=".845" stop-color="#4695F4"/><stop offset=".953" stop-color="#53A6FF"/><stop offset="1" stop-color="#43A9FF"/></linearGradient><linearGradient id="f159idd" x1="13.125" x2="13.125" y1="5.438" y2="14.25" gradientUnits="userSpaceOnUse"><stop stop-color="#29A8EA"/><stop offset="1" stop-color="#28A8EA" stop-opacity="0"/></linearGradient><linearGradient id="f159ide" x1="18.205" x2="18.205" y1="6.313" y2="21.438" gradientUnits="userSpaceOnUse"><stop stop-color="#26AAED"/><stop offset=".57" stop-color="#2B9FEE"/><stop offset="1" stop-color="#2F90DE"/></linearGradient><linearGradient id="f159idf" x1="3.938" x2="28.125" y1="14.438" y2="13.821" gradientUnits="userSpaceOnUse"><stop stop-color="#2F35DF"/><stop offset=".146" stop-color="#5153DF"/><stop offset=".272" stop-color="#3C3DCB"/><stop offset=".83" stop-color="#2E30BC"/><stop offset="1" stop-color="#191C97"/></linearGradient><linearGradient id="f159idg" x1="19.742" x2="22.43" y1="8.094" y2="9.625" gradientUnits="userSpaceOnUse"><stop offset=".085" stop-color="#807E8A"/><stop offset=".368" stop-color="#9E98AB"/><stop offset=".618" stop-color="#B3ACC1"/><stop offset=".941" stop-color="#B2ADC2"/></linearGradient><linearGradient id="f159idh" x1="20.806" x2="16.637" y1="6.149" y2="19.989" gradientUnits="userSpaceOnUse"><stop offset=".062" stop-color="#2290D0"/><stop offset=".135" stop-color="#2731A9"/><stop offset="1" stop-color="#1F1E9B"/></linearGradient><linearGradient id="f159idi" x1="20.313" x2="23" y1="8.094" y2="9.625" gradientUnits="userSpaceOnUse"><stop offset=".085" stop-color="#807E8A"/><stop offset=".368" stop-color="#9E98AB"/><stop offset=".618" stop-color="#B3ACC1"/><stop offset=".941" stop-color="#B2ADC2"/></linearGradient><filter id="f159idj" width="27.506" height="15.725" x="2.263" y="6.013" color-interpolation-filters="sRGB" filterUnits="userSpaceOnUse"><feFlood flood-opacity="0" result="BackgroundImageFix"/><feBlend in="SourceGraphic" in2="BackgroundImageFix" result="shape"/><feGaussianBlur result="effect1_foregroundBlur_18_32561" stdDeviation=".15"/></filter><filter id="f159idk" width="14.713" height="14.922" x="9.563" y="5.328" color-interpolation-filters="sRGB" filterUnits="userSpaceOnUse"><feFlood flood-opacity="0" result="BackgroundImageFix"/><feBlend in="SourceGraphic" in2="BackgroundImageFix" result="shape"/><feGaussianBlur result="effect1_foregroundBlur_18_32561" stdDeviation=".5"/></filter><filter id="f159idl" width="7.126" height="3.714" x="11.406" y="16.536" color-interpolation-filters="sRGB" filterUnits="userSpaceOnUse"><feFlood flood-opacity="0" result="BackgroundImageFix"/><feBlend in="SourceGraphic" in2="BackgroundImageFix" result="shape"/><feGaussianBlur result="effect1_foregroundBlur_18_32561" stdDeviation=".125"/></filter><filter id="f159idm" width="8.719" height="7.781" x="21.031" y="14.281" color-interpolation-filters="sRGB" filterUnits="userSpaceOnUse"><feFlood flood-opacity="0" result="BackgroundImageFix"/><feBlend in="SourceGraphic" in2="BackgroundImageFix" result="shape"/><feGaussianBlur result="effect1_foregroundBlur_18_32561" stdDeviation=".125"/></filter><filter id="f159idn" width="3.375" height="4.141" x="11.391" y="16.484" color-interpolation-filters="sRGB" filterUnits="userSpaceOnUse"><feFlood flood-opacity="0" result="BackgroundImageFix"/><feBlend in="SourceGraphic" in2="BackgroundImageFix" result="shape"/><feGaussianBlur result="effect1_foregroundBlur_18_32561" stdDeviation=".125"/></filter></defs></g></svg>