<svg width="113" height="23" viewBox="0 0 113 23" fill="none" xmlns="http://www.w3.org/2000/svg">
<g clip-path="url(#clip0)">
<path d="M89.1541 7.39611L89.2506 6.89941H99.3682L98.1212 15.6542C98.084 15.9203 97.9578 16.1415 97.7426 16.3158C97.5379 16.4827 97.3046 16.5652 97.0427 16.5652H94.2686L95.5157 15.2827L95.7681 13.4493H90.626L90.0089 16.5652H87.3472L89.1541 7.39611ZM90.8784 12.1398H95.9642L96.1466 10.8302H91.1446L90.8784 12.1398ZM91.3959 9.51959H96.328L96.5241 8.21002H91.6631L91.3959 9.51959Z" fill="#121924"/>
<path d="M108.32 7.28678L108.223 7.94834H109.554L109.666 7.13443L109.189 6.65234H111.837L111.654 7.94834H112.999L112.817 9.25791H111.457L111.317 10.3056H112.396L112.213 11.6151H111.12L110.98 12.7264H112.087L111.891 14.0496H110.798L110.644 15.0701H112.017L111.788 16.5372H106.996H107.001H104.843L105.937 8.85721L105.404 8.99495L105.628 7.42347L108.416 6.66487L108.32 7.28678ZM101.315 9.74104L103.122 7.0113L103.352 6.66695H105.742L103.711 9.74104H105.308L103.262 12.885H104.859L104.663 14.2228H100.669L100.866 12.885L102.113 11.0516H101.133L101.315 9.74104ZM104.412 16.2753L100.377 16.2899L100.573 14.9803L104.594 14.9657L104.412 16.2753ZM107.887 10.3056H109.218L109.358 9.25791H108.04L107.887 10.3056ZM107.228 15.0701H108.545L108.685 14.0496H107.368L107.228 15.0701ZM107.564 12.7264H108.881L109.021 11.6151H107.704L107.564 12.7264Z" fill="#121924"/>
</g>
<path d="M33.6509 13.6875L31.0539 10.4007V16.5576H28.9985V6.62598H30.304L33.9675 11.171L37.2978 6.62598H38.556V16.5576H36.4701V10.7625L34.4453 13.5778L33.6509 13.6875Z" fill="#090B10"/>
<path d="M44.4362 16.6538C43.214 16.6538 42.2613 16.2892 41.5753 15.56C40.8892 14.8308 40.5476 13.8549 40.5476 12.6268C40.5476 11.4097 40.9059 10.442 41.6225 9.71835C42.3391 8.99466 43.3196 8.63281 44.5611 8.63281C45.8471 8.63281 46.8415 9.00837 47.5498 9.75673C48.2553 10.5051 48.6108 11.4892 48.6108 12.7063C48.6108 13.9235 48.2275 14.8856 47.4637 15.5929C46.6998 16.3001 45.6888 16.6538 44.4362 16.6538ZM46.4776 12.7063C46.4776 11.9826 46.3165 11.4152 45.9916 11.0013C45.6666 10.5873 45.2083 10.379 44.6139 10.379C44.0084 10.379 43.5362 10.5627 43.1946 10.93C42.8557 11.2973 42.6835 11.8565 42.6835 12.6131C42.6835 13.3697 42.8307 13.9399 43.1224 14.3264C43.414 14.7157 43.864 14.9076 44.4695 14.9076C45.0639 14.9076 45.5472 14.7321 45.9194 14.3812C46.2915 14.0304 46.4776 13.4739 46.4776 12.7063Z" fill="#090B10"/>
<path d="M53.838 16.6538C52.6159 16.6538 51.6632 16.2892 50.9771 15.56C50.2911 14.8308 49.9495 13.8549 49.9495 12.6268C49.9495 11.4097 50.3078 10.442 51.0244 9.71835C51.741 8.99466 52.7214 8.63281 53.963 8.63281C55.249 8.63281 56.2433 9.00837 56.9516 9.75673C57.6571 10.5051 58.0126 11.4892 58.0126 12.7063C58.0126 13.9235 57.6293 14.8856 56.8655 15.5929C56.0989 16.3001 55.0907 16.6538 53.838 16.6538ZM55.8767 12.7063C55.8767 11.9826 55.7156 11.4152 55.3906 11.0013C55.0657 10.5873 54.6074 10.379 54.013 10.379C53.4075 10.379 52.9353 10.5627 52.5937 10.93C52.2548 11.2973 52.0826 11.8565 52.0826 12.6131C52.0826 13.3697 52.2298 13.9399 52.5214 14.3264C52.8131 14.7157 53.263 14.9076 53.8685 14.9076C54.4629 14.9076 54.9462 14.7321 55.3184 14.3812C55.6906 14.0304 55.8767 13.4739 55.8767 12.7063Z" fill="#090B10"/>
<path d="M61.3734 9.65769C61.7233 9.31229 62.1622 9.03816 62.6871 8.84079C63.2121 8.64068 63.6843 8.54199 64.0981 8.54199C65.1508 8.54199 65.8952 8.84627 66.3368 9.45483C66.7784 10.0634 66.9979 10.8063 66.9979 11.689V16.4697H64.9258V11.7794C64.9258 11.297 64.8092 10.9269 64.5759 10.672C64.3425 10.4143 64.0037 10.2854 63.5565 10.2854C63.2593 10.2854 62.9482 10.3622 62.6233 10.513C62.2983 10.6637 62.0039 10.8419 61.74 11.0393V16.4642H59.668V8.83805H60.7512L61.3734 9.65769Z" fill="#090B10"/>
<path d="M70.9807 16.4646L68.0171 9.12073L70.153 8.83838L71.9362 13.4629L73.6249 8.83838H75.808L72.7639 16.4646H70.9807Z" fill="#090B10"/>
<path d="M78.3745 16.8264L78.7411 15.93L75.9858 9.12073L78.1218 8.83838L79.9049 13.4629L81.5937 8.83838H83.7768L80.3188 17.4706C80.0744 18.0901 79.6438 18.6192 79.0272 19.0578C78.4106 19.4992 77.7635 19.798 77.083 19.9542L76.3497 18.2711C76.7219 18.1148 77.1163 17.9229 77.5357 17.6981C77.9579 17.4761 78.2356 17.1828 78.3745 16.8264Z" fill="#090B10"/>
<path d="M9.66777 8.65733C15.4756 5.36507 21.0306 4.14795 22.075 5.94074L22.0732 5.94175C23.3063 8.08235 19.6082 12.4792 13.8035 15.7682C7.99774 19.0577 2.28901 19.9991 1.03833 17.8678L1.03801 17.868C-0.00634328 16.0752 3.85997 11.9496 9.66777 8.65733Z" fill="#6357FF"/>
<path d="M18.692 13.2734C18.192 15.1731 16.9449 16.8809 15.084 17.9363C13.2341 18.9835 11.1288 19.1891 9.22339 18.6737C10.7955 18.12 12.4592 17.3634 14.1257 16.4177C15.845 15.4418 17.3893 14.3672 18.692 13.2734Z" fill="#3830A6"/>
<path d="M18.2198 8.14745L4.91548 15.6941C4.88215 15.6366 4.84604 15.579 4.81271 15.5215C4.7516 15.4173 4.69328 15.3104 4.63773 15.2035C4.45441 14.8498 4.30165 14.488 4.17943 14.1234C3.87391 13.216 3.75447 12.2785 3.80447 11.3575C3.82669 10.9271 3.88502 10.5022 3.98223 10.0828C4.44052 8.08988 5.70707 6.28065 7.64578 5.1814C9.58449 4.08216 11.8037 3.9122 13.7786 4.52624C14.1924 4.65508 14.5979 4.81956 14.984 5.01693C15.8145 5.43908 16.5755 6.01201 17.2171 6.72748C17.4754 7.01805 17.7143 7.32781 17.931 7.66225C17.9976 7.76367 18.0615 7.86784 18.1226 7.97475C18.1559 8.03232 18.1893 8.08989 18.2198 8.14745Z" fill="#4138C2"/>
<path d="M18.2058 8.12549C18.828 9.19458 16.3532 11.7494 12.6785 13.8328C9.00386 15.9162 5.52085 16.7385 4.89868 15.6694L18.2058 8.12549Z" fill="#3830A6"/>
<path d="M6.81518 14.5839C5.30976 11.9989 6.21246 8.69842 8.83167 7.21265C11.4509 5.72689 14.795 6.6178 16.3004 9.20281L6.81518 14.5839Z" fill="#F8F8FF"/>
<path d="M6.81519 14.5839C7.16793 15.187 9.57604 14.4743 12.1952 12.9885C14.8145 11.5027 16.6532 9.80865 16.3032 9.20557L6.81519 14.5839Z" fill="#E4E4F5"/>
<defs>
<clipPath id="clip0">
<rect width="25.6529" height="9.91304" fill="white" transform="translate(87.3472 6.65234)"/>
</clipPath>
</defs>
</svg>
